<svg width="1em" height="1em" viewBox="0 0 134 134" fill="none" xmlns="http://www.w3.org/2000/svg">
<path d="M78.1046 41.1635C77.0019 42.0283 75.8605 42.924 74.8071 43.9226C73.164 45.4829 72.0777 45.9015 70.6643 45.5284C70.4717 45.4788 69.8889 45.3264 69.3051 45.593C68.3531 46.0276 67.406 46.4692 66.4087 46.9371C64.9317 46.0785 63.3423 46.404 62.0895 47.8378C62.0225 47.9177 61.9469 47.99 61.8639 48.0536C61.7834 48.0224 61.7064 47.9824 61.6344 47.9343L61.5959 47.9074C61.5138 47.8499 61.4351 47.7878 61.3493 47.7218C61.2137 47.6151 61.0713 47.506 60.9244 47.4032C60.1992 46.8956 59.5451 46.7228 58.9849 46.7304L58.3399 45.4253L57.6476 45.2494C57.4254 45.1932 57.1833 45.1409 56.9289 45.087C56.4645 45.0009 56.0061 44.8813 55.5575 44.729L55.4875 44.5914C55.3467 44.2902 55.1729 44.0043 54.9692 43.7392C54.8927 43.6442 54.817 43.5463 54.7413 43.4484C54.3693 42.9704 53.9477 42.4271 53.352 42.0102C53.27 41.9528 53.1797 41.8897 53.0866 41.841C52.9935 41.7924 52.9148 41.7373 52.8327 41.6799C52.3552 41.3457 52.1003 40.9887 52.029 39.9657C51.9526 38.8681 51.6017 37.8693 51.2629 36.9038C51.0572 36.3593 50.8846 35.8041 50.7458 35.2412C50.6598 34.7676 50.6112 34.2892 50.6005 33.8104C50.5602 33.0053 50.5126 32.0935 50.1848 31.1995C49.3483 28.9279 49.8251 27.0539 51.6843 25.302C51.9079 25.0907 52.5714 24.9425 53.1576 24.8124C53.581 24.7173 54.0182 24.6201 54.4648 24.4762L55.9881 23.985L55.3207 22.5092C55.296 22.451 55.2747 22.3916 55.2571 22.3311C55.1471 22.001 54.9619 21.4482 54.4114 21.0629L54.3753 21.0376C54.2791 20.9774 54.1937 20.9013 54.1232 20.8127C54.0906 20.6184 54.4026 19.9665 54.5058 19.7526C54.7906 19.1223 55.0231 18.4688 55.2011 17.7985C55.2205 17.7306 55.2394 17.6634 55.2572 17.6013C55.4032 17.4765 55.5509 17.3563 55.6947 17.2347C56.2793 16.7487 56.8863 16.2464 57.4094 15.6264C58.2885 14.5834 59.0663 13.4597 59.733 12.2696C60.0947 11.6217 60.2872 10.9311 60.4562 10.321C60.527 10.0678 60.5968 9.81275 60.6808 9.56526C60.7647 9.31777 60.8313 9.0794 60.9013 8.82921C61.2325 7.6574 61.2586 7.66029 61.8166 7.69606C62.6474 7.75248 64.1315 7.43602 64.58 6.34632C64.8734 5.6353 65.4551 5.40854 66.5449 5.03725C67 4.89299 67.4456 4.72278 67.8795 4.52747C68.8451 4.07164 69.5697 3.25798 70.0921 2.6007C70.7511 1.77424 71.2398 2.00864 71.6443 2.29171L71.7173 2.34282C71.7944 2.39679 71.8699 2.44962 71.9429 2.50072C73.8751 3.85295 75.2395 2.95133 75.9111 2.24484C76.0704 2.18083 76.2337 2.12652 76.4002 2.08221C76.5746 2.03394 76.7483 1.99 76.9215 1.94686C77.958 1.68842 79.2371 1.36095 80.3067 0.21164C80.3145 0.200528 80.3228 0.192154 80.3316 0.186514C80.4567 0.220846 80.778 0.348691 81.4466 0.816656C81.5771 0.907952 81.7141 1.00385 81.8524 1.11011L82.4542 1.55843L85.2336 0.796986L85.5273 1.12666C86.0262 1.68868 86.5252 2.25071 87.031 2.80811C87.1687 2.95609 87.3187 3.09234 87.4794 3.21533L87.4942 3.22567C87.9459 4.23591 88.4418 5.17776 89.3074 5.78354C89.8949 6.19466 90.5578 6.38785 91.2821 6.46902C90.9916 7.63151 90.7094 8.72995 90.2951 9.72536C89.8808 10.7208 89.5121 11.7209 89.5374 13.1764C89.579 15.9725 89.2366 17.665 87.3143 18.5971C86.3847 19.0522 85.9876 20.0336 85.701 20.747L85.6738 20.8155C85.2658 21.8141 84.9561 22.8331 84.6623 23.8099C84.1175 25.6067 83.6028 27.3028 82.5692 28.7954C81.6992 30.0489 81.8362 31.7115 81.9572 33.1785C81.9936 33.6191 82.028 34.0345 82.033 34.4046C82.0351 34.5668 82.0635 34.7284 82.1172 34.8833L82.0349 35.2821L79.5822 39.66L79.8251 39.7863L79.5298 40.0336C79.0578 40.4164 78.5812 40.7899 78.1046 41.1635Z" fill="#FED8A9"/>
<path d="M128.791 95.1256C127.893 97.0246 127.183 98.3062 125.568 98.7823C124.799 99.008 124.49 99.6573 124.322 100.006C124.301 100.051 124.282 100.095 124.259 100.134C123.68 101.087 123.13 102.073 122.601 103.027C121.337 105.289 120.143 107.421 118.572 109.219C117.994 109.869 117.454 110.551 116.929 111.208C116.086 112.262 115.291 113.255 114.387 114.141C114.203 114.322 113.777 114.489 113.364 114.651C112.789 114.876 112.137 115.131 111.568 115.604C109.973 116.927 108.436 118.343 106.95 119.712L106.816 119.834L106.652 118.314L102.648 121.416C101.971 121.061 100.616 120.349 99.0562 121.326C98.938 121.268 98.8246 121.201 98.7174 121.125C98.2071 120.768 97.7867 120.249 97.69 119.973C97.4504 119.339 97.0199 118.787 96.4579 118.394C96.2828 118.271 96.0945 118.167 95.8967 118.086C94.7919 117.636 93.6349 117.126 92.6708 116.451C91.9218 115.927 91.3682 115.357 90.979 114.71C90.609 114.096 90.4824 113.165 90.3363 112.088C90.2541 111.481 90.1685 110.852 90.0293 110.181L89.811 109.201L88.9413 109.013C88.913 108.86 88.8872 108.51 89.0105 107.84C89.4929 105.23 87.9785 103.46 86.9779 102.289C86.8634 102.156 86.7517 102.026 86.6495 101.901L86.6861 100.871C86.7318 99.6022 86.7714 98.4663 86.8263 97.3294L86.8291 97.2521C86.839 97.051 86.8538 96.7137 86.898 96.6122C87.2808 95.7945 87.6542 94.9692 88.0277 94.1439C89.0976 91.7768 90.2035 89.3286 91.5544 87.1381C91.8954 86.5845 92.8947 85.7573 94.1229 85.8956C94.9735 85.9919 96.4129 85.514 96.7914 84.4002C97.4301 82.5201 98.7307 81.6188 101.145 81.3845C103.969 81.1144 106.177 79.6749 108.023 78.3489C108.57 77.9562 109.557 77.801 110.511 77.6516C110.774 77.6111 111.034 77.5696 111.287 77.5243C112.824 77.2495 114.423 77.0471 115.97 76.8504C116.396 76.7937 117.439 76.6604 117.501 76.6541C118.038 76.9704 119.062 77.4556 120.116 77.0591C121.386 76.58 121.718 75.2241 121.936 74.329C121.958 74.2346 121.996 74.0804 122.04 73.9289C122.79 74.3353 123.506 74.0552 123.854 73.9201C123.869 73.9142 123.884 73.9082 123.899 73.9017C124.167 73.942 124.434 73.9877 124.677 74.049C124.673 74.0891 124.668 74.1301 124.662 74.1726C124.593 74.6384 124.499 75.0994 124.378 75.5534C124.328 75.7546 124.282 75.946 124.242 76.1264L123.825 78.0122L127.038 77.9317C128.269 77.8982 129.432 77.8656 130.589 77.8151C131.218 77.7887 131.66 77.4665 131.927 77.2759L131.984 77.2357C132.048 77.1909 132.116 77.152 132.188 77.1193C132.206 77.1851 132.22 77.2519 132.229 77.3193C132.333 78.0014 132.463 78.6823 132.586 79.3431C132.869 80.835 133.137 82.244 133.12 83.6083C133.117 83.8803 133.136 84.1501 133.154 84.4102C133.238 85.5651 133.15 85.7342 132.732 85.949C131.825 86.4117 131.384 87.5095 131.34 89.4018C131.339 90.0325 131.4 90.6636 131.524 91.2862C129.975 91.9084 129.441 93.3882 129.09 94.3629C128.989 94.6434 128.898 94.9104 128.791 95.1256Z" fill="#FED8A9"/>
<path d="M123.463 48.499C123.019 49.134 122.577 49.765 122.128 50.393L121.994 50.5834C121.931 50.6739 121.837 50.8089 121.766 50.8969C119.868 51.3824 118.991 52.8035 118.342 53.8525C118.066 54.3013 117.804 54.7253 117.508 55.0313C116.894 55.6658 116 56.1673 115.054 56.7005C114.574 56.9702 114.079 57.2494 113.583 57.5633L112.131 58.4839L113.327 59.7822C113.797 60.2931 113.894 60.5252 112.789 62.0072C112.66 62.1802 112.535 62.3531 112.411 62.5252C111.665 63.558 111.127 64.3038 109.976 64.7624C108.597 65.3139 107.699 66.4675 106.831 67.5846C106.48 68.0354 106.146 68.466 105.801 68.8264C105.737 68.8324 105.662 68.8393 105.604 68.8436C105.266 68.8606 104.931 68.9154 104.608 69.0069C104.47 69.0486 104.326 69.0878 104.18 69.1265C103.509 69.307 102.673 69.5334 102.039 70.1478C100.605 71.5422 97.6514 72.0197 95.5887 71.1911C95.398 71.1143 95.1614 70.9913 94.9105 70.8607C93.9326 70.3525 92.0286 69.3617 90.2489 70.6088C89.5148 70.1471 88.7446 69.964 88.0517 69.796C87.5221 69.669 87.023 69.549 86.7129 69.332C86.6489 69.2877 86.59 69.2365 86.5373 69.1795C86.4418 69.0748 86.3348 68.9809 86.2185 68.8997C86.0454 68.7804 85.8557 68.6875 85.6559 68.6242C85.5484 68.0582 85.3453 67.4526 84.7545 67.0391L84.6643 66.976L84.595 66.937C84.4566 66.8599 84.3221 66.7756 84.1923 66.6846C83.0896 65.9129 82.4619 64.7524 81.735 63.4088C81.4659 62.9095 81.1865 62.3935 80.8708 61.8805C79.9178 60.3291 80.0555 59.2311 80.4316 57.0939C80.6025 56.1162 81.1009 55.2223 81.6298 54.2763C82.3407 53.0002 83.148 51.555 83.178 49.729C83.2174 49.6726 83.2663 49.6028 83.3035 49.5496C83.4349 49.3835 83.5564 49.21 83.6674 49.0297L84.2117 48.1017L84.077 47.9554C84.0842 47.945 84.0915 47.9347 84.0987 47.9244L84.8638 48.3156L85.3708 46.6603C85.3967 46.5744 85.5825 46.3473 85.7057 46.1958C86.1819 45.6114 87.0008 44.6072 86.7016 43.0001C86.7514 42.994 86.801 42.9861 86.8502 42.9764C87.5835 42.8262 88.2282 42.5478 88.8507 42.28C89.0785 42.1816 89.3082 42.0822 89.5433 41.989L90.6147 41.5741L90.4273 40.4307C90.1661 38.8408 91.1797 37.6771 92.7547 36.0834C92.9701 35.8664 93.1795 35.6511 93.3833 35.4402C93.9977 34.7929 95.217 34.4496 96.5068 34.0858C97.1701 33.8996 97.8553 33.7064 98.5102 33.4553C98.8465 33.324 99.1746 33.1836 99.4898 33.0459C100.12 32.7704 100.719 32.512 101.269 32.4242C101.468 32.3926 101.852 32.4772 102.221 32.5642C102.658 32.6751 103.102 32.7486 103.549 32.7839C104.349 32.8283 105.374 32.8136 106.211 32.2986C106.482 32.1263 106.74 31.9369 106.986 31.7315C107.585 31.2495 107.608 31.2591 107.898 31.3722C108.876 31.7514 109.733 31.2241 110.301 30.8754C110.461 30.7694 110.63 30.6756 110.805 30.5947C110.976 30.5715 111.149 30.5642 111.322 30.5729C111.608 30.581 111.895 30.5697 112.179 30.5391C112.302 30.5237 112.438 30.5182 112.568 30.5066C113.232 30.4649 114.141 30.4072 114.79 29.7545C114.914 29.6296 115.003 29.5485 115.066 29.4947L115.224 29.6055C115.985 30.1378 116.839 30.0262 117.459 29.9513C117.633 29.9235 117.809 29.9088 117.986 29.9074L118.04 29.9135L116.193 31.1149L118.783 32.2107C119.09 32.3401 119.358 32.4652 119.602 32.5792C120.155 32.8372 120.67 33.0759 121.259 33.2095C121.489 33.2611 121.722 33.2971 121.949 33.3372C122.158 33.3658 122.365 33.4068 122.57 33.4601C122.595 33.5635 122.609 33.6689 122.611 33.7745C122.658 34.919 123.704 35.6511 124.15 35.9635C124.344 36.099 124.549 36.2328 124.746 36.3606C124.885 36.4505 125.02 36.5376 125.139 36.6201L125.243 36.693C125.518 36.8739 125.775 37.0781 126.014 37.3034C125.874 37.5758 125.707 37.8336 125.516 38.0732C124.56 39.3509 123.116 41.2799 124.232 43.9349C124.263 44.0075 124.289 44.093 124.318 44.175C124.474 44.6388 124.689 45.2715 125.291 45.693C125.33 45.7202 125.37 45.7456 125.41 45.7692L125.406 45.7747C124.733 46.6753 124.088 47.6025 123.463 48.499Z" fill="#FED8A9"/>
<path d="M9.81562 26.1402C10.2872 25.7984 10.6485 25.3299 10.8586 24.7878C11.2864 23.6682 12.2599 23.1872 13.8103 22.4914L14.0133 22.397L14.1073 22.3587C14.3992 22.2402 14.9423 22.0196 15.2674 21.4643C15.6506 20.8102 16.3463 20.3191 17.0831 19.799C17.7639 19.3188 18.467 18.8223 19.0349 18.1331C19.3979 17.693 19.8974 17.4927 20.5292 17.2396C21.1958 16.9718 21.95 16.6696 22.6187 16.0355C22.6931 16.0016 22.7717 15.9772 22.8529 15.9629C25.332 17.0523 26.7255 15.4261 27.4856 14.5391C27.5555 14.4568 27.6267 14.3742 27.6982 14.293C28.2395 13.8689 30.6458 13.3996 31.2789 13.5814C31.6836 13.7558 32.0869 13.934 32.4894 14.1117C33.3988 14.5116 34.3345 14.9299 35.288 15.3052C35.8745 15.5319 36.4331 15.8276 36.9515 16.1856C37.9007 16.8532 38.664 17.7498 39.1652 18.786C39.355 19.152 39.6355 19.4664 39.9796 19.6989C40.0239 19.7299 40.069 19.7615 40.1117 19.7914L40.1233 19.8953C40.1918 20.5415 40.2504 21.1005 40.2899 21.6448C40.2934 21.6922 40.3008 21.7707 40.3017 21.8376C38.8389 24.3731 39.1558 27.0413 39.435 29.4018C39.5709 30.5612 39.7016 31.653 39.6355 32.6887C39.5962 33.2689 39.5496 33.8595 39.5013 34.4524C39.432 35.3251 39.3604 36.2256 39.3179 37.123C39.2754 38.0203 39.5803 38.8438 39.8807 39.5743C38.8937 40.4473 38.1501 41.5566 37.7171 42.802C37.2841 44.0474 37.1753 45.3895 37.4006 46.7071C37.387 46.7756 37.3531 46.8938 37.3327 46.9788C37.3123 47.0639 37.2901 47.1288 37.2712 47.203C36.4064 50.5188 34.4684 53.0801 31.6658 54.6081C31.4277 54.7371 31.1853 54.8773 30.9366 55.0213C29.6686 55.7538 28.4723 56.4467 27.1562 56.1808C26.3929 56.0261 25.798 56.3749 25.4461 56.5862C25.3916 56.621 25.3354 56.6531 25.2774 56.6822C24.9423 56.8273 24.6163 56.9911 24.3008 57.1729C24.0474 57.3217 23.7835 57.4531 23.511 57.5661C20.9172 56.9061 19.8024 58.8291 19.3777 59.5617C18.6036 60.9001 17.8607 61.0743 16.9119 60.9211C16.313 60.828 15.7067 60.946 15.1998 61.2542C14.1345 61.9276 13.4595 61.5805 11.7999 60.4203C11.6531 60.3175 11.5062 60.2147 11.3651 60.1159C11.3302 60.082 11.2947 60.0419 11.2647 60.0079C11.0956 59.8119 10.9043 59.6356 10.6949 59.4825C10.5031 59.3471 10.2906 59.2439 10.0663 59.1774C9.7838 59.0974 9.51577 58.9706 9.27377 58.8025C8.48614 58.2513 8.00412 57.2494 7.49339 56.1872C7.41405 56.0229 7.33552 55.8592 7.25614 55.6984C6.88178 54.9374 6.37648 54.0753 5.47972 53.4477C5.04302 53.1453 4.55807 52.92 4.04725 52.7822C3.84928 52.7326 3.65649 52.6626 3.47207 52.5736C3.48364 52.4785 3.50373 52.385 3.53209 52.294C3.81082 51.342 3.64283 49.5631 2.60099 48.6992C2.38623 48.5205 2.34002 48.3368 2.31141 47.5411C2.28452 46.8128 2.25731 45.8998 1.65509 45.0243C1.37109 44.6127 1.432 44.3266 1.79178 43.3793C1.97418 42.9004 2.18041 42.3577 2.26152 41.744C2.4078 40.6355 2.52036 39.5141 2.62635 38.4283C2.70033 37.7008 2.77347 36.9728 2.85679 36.2459C2.86952 36.0961 2.9093 35.9505 2.97425 35.8161C3.19899 35.4129 3.4564 35.0137 3.72911 34.5908C4.31038 33.6886 4.91194 32.7557 5.27663 31.6618C5.98392 29.5648 7.37992 27.8635 9.81562 26.1402Z" fill="#FED8A9"/>
<path d="M7.41943 73.3355C8.12406 72.8212 8.73226 72.3765 9.35822 72.137C10.2722 71.7882 10.5707 71.8611 10.757 71.9914C10.819 72.0364 10.8762 72.0875 10.9277 72.144C11.143 72.3824 11.3839 72.597 11.646 72.7838C12.4443 73.3425 13.1627 73.3534 13.6248 73.2642C14.3496 73.1246 14.9673 72.6523 15.4634 71.8596C15.6634 71.7451 15.8821 71.6644 16.1108 71.621C17.9386 71.2222 19.8077 70.8394 21.6157 70.4705C23.1196 70.1624 24.623 69.8504 26.1259 69.5345C26.5227 69.4369 26.8984 69.2748 27.2379 69.0546C27.3258 68.9994 27.417 68.9495 27.5111 68.9052C27.7288 68.8388 27.9487 68.7621 28.1694 68.686C28.6872 68.5068 29.2228 68.3212 29.5817 68.3429C30.0704 68.3728 30.5689 68.4308 31.0957 68.492C33.4674 68.7707 36.4049 69.1143 38.6729 66.4187C38.7678 66.4 38.8958 66.3796 38.9907 66.3644C39.4095 66.3135 39.8181 66.2087 40.2062 66.0527C40.8951 65.7496 41.5709 65.4197 42.2254 65.1009C43.1407 64.656 44.006 64.2352 44.9002 63.8796C45.7448 63.546 46.1745 63.4245 46.3969 63.3898C48.7357 64.919 50.7082 64.067 52.158 63.4415C52.5894 63.2397 53.0371 63.0719 53.497 62.9395C53.8244 62.8577 54.1546 62.7648 54.4868 62.6709C56.2377 62.1758 57.3666 61.9111 58.4398 62.6621C58.5765 62.759 58.7065 62.865 58.8289 62.9794C58.8945 63.0411 58.9646 63.098 59.0385 63.1497C59.8286 63.7027 60.8529 63.5682 61.6565 63.3892C62.2066 63.2669 62.7333 63.1116 63.2426 62.962C63.9846 62.7434 64.6851 62.5372 65.3622 62.4588C65.591 62.4322 65.7698 62.4509 65.8535 62.5094C65.8954 62.5387 66.0412 62.6692 66.1569 63.1238C66.5245 64.5198 67.267 65.8778 68.2041 66.8564C68.3094 66.9668 68.4257 67.0664 68.551 67.1536C69.6012 67.8886 71.1999 67.7682 71.9794 67.5818C72.213 67.5317 72.4561 67.5312 72.6931 67.5803C72.93 67.6293 73.1553 67.7269 73.3544 67.8665C73.6005 68.0275 73.782 68.2693 73.8657 68.5472C74.0001 69.0539 74.2525 69.4599 74.4565 69.7884C74.5247 69.8988 74.6255 70.0604 74.6634 70.1424L74.696 70.6111C74.9092 73.6668 75.0935 76.3061 73.2723 78.5836C72.5042 79.5466 72.5594 80.8789 72.6042 81.9485L72.626 82.3137C72.6537 83.2365 72.771 84.1274 72.9075 85.1583C72.9485 85.4613 72.9902 85.779 73.0317 86.1143C72.1777 87.5268 72.5228 89.1364 72.8035 90.4574C72.9694 91.2369 73.1276 91.9731 73.0667 92.6104C73.0475 92.8334 73.0055 93.0855 72.9629 93.349C72.8293 94.1861 72.6771 95.1354 72.9812 96.1015C73.5399 97.8618 73.2426 99.2997 72.0154 100.77C71.2055 101.741 70.8664 102.674 70.9802 103.624C71.094 104.574 71.6156 105.392 72.5835 106.178C72.6769 106.415 72.752 106.658 72.808 106.905C72.909 107.342 73.0503 107.77 73.23 108.183C74.1165 110.083 75.0221 111.92 75.9116 113.657C77.254 116.262 77.3069 118.403 76.0858 120.813C74.618 123.714 73.2935 125.591 70.8762 126.6C70.0802 126.932 69.3404 127.605 68.6784 128.6C67.9351 129.716 66.8531 130.38 65.0607 130.822C64.6779 130.928 64.3218 131.107 64.0124 131.349C63.9682 131.381 63.9251 131.415 63.8809 131.443L63.8388 131.452C61.5609 131.998 59.2075 132.562 56.8783 133.015L56.4524 132.717C55.3858 131.97 54.5002 131.935 53.8038 132.181C52.5349 131.664 51.3542 132.034 50.5266 132.294C50.0431 132.446 49.5899 132.585 49.2571 132.537C48.4071 132.403 47.582 132.391 46.7825 132.379C45.6331 132.362 44.545 132.35 43.563 131.963C42.8273 131.676 42.1137 131.796 41.5933 131.885C41.4213 131.92 41.2463 131.941 41.07 131.948C39.9763 131.806 38.8945 131.568 37.8377 131.236C37.8132 131.221 37.7896 131.205 37.7672 131.187C37.6769 131.124 37.5884 131.051 37.5001 130.98C37.3556 130.863 37.2105 130.748 37.0619 130.644C36.2743 130.092 35.5535 129.992 34.9406 130.105C34.4403 129.077 33.6752 128.191 32.7244 127.539C31.6488 126.787 30.4172 126.36 29.2407 126.328L29.1334 126.271C28.8617 126.121 28.5726 126.006 28.2733 125.928C27.9316 125.851 27.5867 125.792 27.24 125.749C27.0412 125.317 26.7677 124.92 26.4321 124.577C25.1416 123.319 23.8687 122.097 22.426 121.064L22.385 121.035C21.7787 120.611 21.0924 120.334 20.4861 120.09C20.0216 119.903 19.5828 119.725 19.3153 119.537C19.2626 119.505 19.2156 119.464 19.1763 119.417C18.5914 118.49 17.8265 117.685 16.9277 117.049C16.0851 116.46 15.1109 116.014 13.7794 115.592C13.4185 115.491 13.074 115.335 12.7586 115.13C12.391 114.872 12.2637 114.614 12.276 114.165C12.2986 113.516 11.9627 112.943 11.276 112.463C11.148 112.373 11.0019 112.281 10.8552 112.191C10.7512 112.126 10.6451 112.061 10.5507 111.995C10.528 111.981 10.5061 111.966 10.4851 111.949C10.1223 111.636 9.74711 111.332 9.37191 111.028C8.47696 110.304 7.63146 109.619 7.0063 108.837C6.9665 108.588 6.94708 108.338 6.94822 108.087C6.93369 107.551 6.91664 106.943 6.71024 106.331C6.63058 106.096 6.55481 105.855 6.47959 105.613C6.0388 104.231 5.5397 102.665 4.37705 101.594C3.68677 100.96 3.4561 100.359 3.22963 99.3287C3.1093 98.788 3.01765 98.2344 2.93121 97.6453C2.78838 96.7176 2.63778 95.7644 2.3492 94.8092C1.95323 93.549 1.31452 92.3698 0.468913 91.3377C0.237302 91.0573 0.205163 91.0159 0.592109 90.1137C0.643542 89.9948 0.696096 89.8743 0.747849 89.7497L0.947316 89.2673C1.29815 88.4167 1.66678 87.5407 1.93 86.604C2.62541 84.1345 3.21671 81.8452 3.72648 79.6183C3.79706 79.2983 3.81229 78.9672 3.7715 78.6388C5.60559 77.8187 6.79903 75.9982 6.96778 73.6839C7.1105 73.5603 7.26635 73.4459 7.41943 73.3355Z" fill="#FED8A9"/>
</svg>
